scaled_model_ID_test_static_coords.mot
version=1
datacolumns 20
datarows 36
range 4.290000 4.640000
inDegrees=yes
endheader
time	pelvis_tilt	pelvis_list	pelvis_rotation	hip_flexion_r	hip_adduction_r	hip_rotation_r	knee_angle_r	ankle_angle_r	hip_flexion_l	hip_adduction_l	hip_rotation_l	knee_angle_l	ankle_angle_l	pelvis_tx	pelvis_ty	pelvis_tz	lumbar_bending	lumbar_rotation	lumbar_extension
4.290000	9.704111	0.403534	-178.991102	12.960504	-5.395564	-4.339704	-7.933111	2.346214	10.797496	-6.198898	-5.032395	-8.068747	2.410446	0.693179	0.934619	-0.115026	-1.119919	-0.607724	8.157785
4.300000	9.726617	0.414029	-178.999682	12.985393	-5.375725	-4.304370	-7.926169	2.333201	10.818682	-6.212628	-5.020806	-8.060423	2.409824	0.693206	0.934577	-0.115047	-1.100062	-0.591610	8.184049
4.310000	9.750366	0.426824	-179.008886	13.021085	-5.355383	-4.267783	-7.938433	2.319236	10.846426	-6.224860	-5.003636	-8.057858	2.406160	0.693248	0.934539	-0.115052	-1.086164	-0.577734	8.207008
4.320000	9.774160	0.438314	-179.018823	13.064655	-5.338830	-4.233840	-7.967111	2.310900	10.878115	-6.231916	-4.989701	-8.059909	2.398880	0.693299	0.934512	-0.115047	-1.077287	-0.571685	8.227612
4.330000	9.796156	0.445897	-179.029143	13.110718	-5.329221	-4.205704	-8.005998	2.313038	10.909626	-6.232014	-4.985361	-8.064426	2.390112	0.693350	0.934501	-0.115037	-1.071304	-0.576299	8.245882
4.340000	9.812925	0.448698	-179.038496	13.151589	-5.327643	-4.185532	-8.047766	2.327633	10.935699	-6.225951	-4.990977	-8.069669	2.383440	0.693397	0.934506	-0.115028	-1.066363	-0.590910	8.259442
4.350000	9.819916	0.447371	-179.045131	13.179074	-5.332715	-4.174149	-8.085931	2.352588	10.951198	-6.216611	-5.000515	-8.075138	2.381627	0.693441	0.934521	-0.115025	-1.061610	-0.612415	8.264105
4.360000	9.813259	0.443536	-179.047905	13.187226	-5.341014	-4.170823	-8.116149	2.381411	10.952836	-6.207915	-5.004481	-8.081621	2.385184	0.693484	0.934540	-0.115034	-1.057412	-0.636964	8.256207
4.370000	9.791974	0.438936	-179.046580	13.174710	-5.348800	-4.173583	-8.136772	2.405393	10.940716	-6.203172	-4.994751	-8.090474	2.392296	0.693530	0.934556	-0.115059	-1.055538	-0.661361	8.235286
4.380000	9.759268	0.434681	-179.041395	13.145620	-5.353995	-4.180301	-8.148532	2.417122	10.918881	-6.203218	-4.968779	-8.102621	2.399694	0.693579	0.934567	-0.115099	-1.058812	-0.683642	8.205433
4.390000	9.721928	0.431084	-179.032683	13.108137	-5.356746	-4.189897	-8.153377	2.412858	10.894197	-6.205884	-4.930849	-8.117728	2.404453	0.693626	0.934575	-0.115151	-1.069822	-0.702822	8.174273
4.400000	9.687824	0.427865	-179.020949	13.071507	-5.358856	-4.202719	-8.153456	2.394088	10.873673	-6.207294	-4.889689	-8.133986	2.406559	0.693669	0.934580	-0.115206	-1.089278	-0.718560	8.149853
4.410000	9.662809	0.425058	-179.007146	13.042756	-5.362064	-4.219943	-8.150640	2.367412	10.861775	-6.204589	-4.854339	-8.148751	2.410045	0.693705	0.934586	-0.115255	-1.115312	-0.730478	8.137100
4.420000	9.648867	0.424312	-178.992759	13.024919	-5.365884	-4.242505	-8.146405	2.341703	10.859488	-6.198665	-4.830975	-8.159662	2.421031	0.693736	0.934588	-0.115288	-1.144163	-0.737098	8.135995
4.430000	9.644486	0.428752	-178.979729	13.017559	-5.367241	-4.270087	-8.141811	2.324416	10.865311	-6.194509	-4.821884	-8.165694	2.443965	0.693768	0.934583	-0.115300	-1.171307	-0.736003	8.142488
4.440000	9.646408	0.440900	-178.970261	13.018575	-5.362320	-4.300567	-8.137370	2.318720	10.876904	-6.198376	-4.826135	-8.167623	2.478390	0.693807	0.934566	-0.115288	-1.192279	-0.725713	8.151141
4.450000	9.651024	0.460251	-178.966472	13.025563	-5.349247	-4.330140	-8.133344	2.322719	10.891726	-6.213775	-4.840877	-8.167708	2.518033	0.693859	0.934537	-0.115260	-1.203294	-0.707773	8.157349
4.460000	9.654669	0.482443	-178.969825	13.035906	-5.329865	-4.354186	-8.130424	2.331281	10.906409	-6.239030	-4.862588	-8.168567	2.552868	0.693926	0.934498	-0.115228	-1.202023	-0.687229	8.158000
4.470000	9.653715	0.500730	-178.980278	13.046095	-5.309255	-4.368587	-8.129592	2.339162	10.916360	-6.267840	-4.888146	-8.171733	2.573571	0.694007	0.934459	-0.115204	-1.188668	-0.670902	8.151279
4.480000	9.645355	0.508841	-178.995715	13.051679	-5.293493	-4.370823	-8.131077	2.343831	10.916898	-6.292135	-4.915449	-8.177030	2.576694	0.694094	0.934429	-0.115200	-1.166477	-0.664574	8.136587
4.490000	9.628701	0.503685	-179.012547	13.048597	-5.287181	-4.360335	-8.133814	2.346655	10.905411	-6.305489	-4.943214	-8.183316	2.566985	0.694178	0.934414	-0.115217	-1.140777	-0.670723	8.114704
4.500000	9.605365	0.486655	-179.027059	13.035146	-5.291859	-4.338125	-8.136129	2.351499	10.882992	-6.305509	-4.970369	-8.189708	2.554253	0.694247	0.934415	-0.115254	-1.117271	-0.687778	8.087842
4.510000	9.579047	0.462867	-179.036480	13.013046	-5.305650	-4.306233	-8.136829	2.361283	10.854453	-6.294220	-4.995689	-8.196189	2.546683	0.694295	0.934428	-0.115299	-1.100790	-0.711108	8.059379
4.520000	9.554192	0.438747	-179.039724	12.986991	-5.324166	-4.267859	-8.136070	2.375072	10.826572	-6.276553	-5.017615	-8.203606	2.545543	0.694324	0.934449	-0.115346	-1.094408	-0.735089	8.033160
4.530000	9.534193	0.419428	-179.037984	12.962979	-5.342358	-4.227850	-8.135749	2.388253	10.805432	-6.257978	-5.034051	-8.213440	2.545116	0.694343	0.934470	-0.115387	-1.098365	-0.755041	8.012386
4.540000	9.520221	0.407399	-179.034484	12.946107	-5.356246	-4.192280	-8.138721	2.395488	10.794197	-6.242640	-5.042702	-8.227057	2.537626	0.694364	0.934488	-0.115420	-1.109513	-0.768153	7.998603
4.550000	9.511434	0.402715	-179.033095	12.938826	-5.363685	-4.166507	-8.146911	2.394049	10.792411	-6.232648	-5.042224	-8.244461	2.519164	0.694397	0.934500	-0.115444	-1.122095	-0.773423	7.991360
4.560000	9.506190	0.404062	-179.036731	12.940559	-5.364326	-4.152653	-8.159783	2.385563	10.796909	-6.228341	-5.033475	-8.263697	2.492556	0.694445	0.934504	-0.115459	-1.129507	-0.771253	7.988567
4.570000	9.503257	0.409844	-179.046373	12.948561	-5.359017	-4.148416	-8.174245	2.374877	10.803541	-6.229010	-5.020111	-8.281367	2.465685	0.694501	0.934501	-0.115465	-1.126345	-0.763021	7.987333
4.580000	9.502238	0.418742	-179.060951	12.959296	-5.349000	-4.148203	-8.185846	2.366562	10.808840	-6.233593	-5.008028	-8.293857	2.446921	0.694553	0.934492	-0.115463	-1.110118	-0.750716	7.984922
4.590000	9.503169	0.429573	-179.078010	12.969588	-5.335485	-4.145919	-8.190592	2.361610	10.811136	-6.240989	-5.003531	-8.298943	2.440918	0.694596	0.934482	-0.115458	-1.082129	-0.736727	7.979593
4.600000	9.505845	0.440754	-179.094614	12.977365	-5.319905	-4.138023	-8.186767	2.356599	10.810966	-6.249905	-5.010800	-8.297155	2.446906	0.694628	0.934478	-0.115456	-1.047479	-0.723703	7.971144
4.610000	9.509450	0.449989	-179.108037	12.982005	-5.304503	-4.125558	-8.175882	2.345679	10.810575	-6.258607	-5.029737	-8.291842	2.459530	0.694654	0.934484	-0.115463	-1.014171	-0.714302	7.960881
4.620000	9.512821	0.454519	-179.116218	12.984073	-5.292388	-4.114275	-8.161771	2.324005	10.812564	-6.265098	-5.055226	-8.287588	2.471095	0.694683	0.934504	-0.115485	-0.991075	-0.710804	7.951030
4.630000	9.515061	0.451741	-179.118039	12.984637	-5.287002	-4.112465	-8.148546	2.291123	10.818351	-6.267385	-5.078531	-8.287852	2.473928	0.694717	0.934537	-0.115524	-0.985039	-0.714873	7.943763
4.640000	9.515936	0.439957	-179.113378	12.984709	-5.291516	-4.127073	-8.139303	2.252910	10.827496	-6.263450	-5.090570	-8.293460	2.462286	0.694754	0.934581	-0.115576	-0.998302	-0.727463	7.940149
